<svg preserveAspectRatio="none" id="visual" viewBox="0 0 1920 1080" width="1920" height="1080" xmlns="http://www.w3.org/2000/svg" xmlns:xlink="http://www.w3.org/1999/xlink" version="1.1"><path d="M0 347L29.2 334.3C58.3 321.7 116.7 296.3 174.8 283.7C233 271 291 271 349.2 249.3C407.3 227.7 465.7 184.3 523.8 175.3C582 166.3 640 191.7 698.2 217C756.3 242.3 814.7 267.7 872.8 262.3C931 257 989 221 1047.2 226.3C1105.3 231.7 1163.7 278.3 1221.8 305.3C1280 332.3 1338 339.7 1396.2 321.7C1454.3 303.7 1512.7 260.3 1570.8 265.7C1629 271 1687 325 1745.2 326.8C1803.3 328.7 1861.7 278.3 1890.8 253.2L1920 228L1920 0L1890.8 0C1861.7 0 1803.3 0 1745.2 0C1687 0 1629 0 1570.8 0C1512.7 0 1454.3 0 1396.2 0C1338 0 1280 0 1221.8 0C1163.7 0 1105.3 0 1047.2 0C989 0 931 0 872.8 0C814.7 0 756.3 0 698.2 0C640 0 582 0 523.8 0C465.7 0 407.3 0 349.2 0C291 0 233 0 174.8 0C116.7 0 58.3 0 29.2 0L0 0Z" fill="#255e4d"></path><path d="M0 422L29.2 411.2C58.3 400.3 116.7 378.7 174.8 362.5C233 346.3 291 335.7 349.2 316C407.3 296.3 465.7 267.7 523.8 265.8C582 264 640 289 698.2 312.3C756.3 335.7 814.7 357.3 872.8 341.2C931 325 989 271 1047.2 267.3C1105.3 263.7 1163.7 310.3 1221.8 348.2C1280 386 1338 415 1396.2 400.7C1454.3 386.3 1512.7 328.7 1570.8 328.7C1629 328.7 1687 386.3 1745.2 390C1803.3 393.7 1861.7 343.3 1890.8 318.2L1920 293L1920 226L1890.8 251.2C1861.7 276.3 1803.3 326.7 1745.2 324.8C1687 323 1629 269 1570.8 263.7C1512.7 258.3 1454.3 301.7 1396.2 319.7C1338 337.7 1280 330.3 1221.8 303.3C1163.7 276.3 1105.3 229.7 1047.2 224.3C989 219 931 255 872.8 260.3C814.7 265.7 756.3 240.3 698.2 215C640 189.7 582 164.3 523.8 173.3C465.7 182.3 407.3 225.7 349.2 247.3C291 269 233 269 174.8 281.7C116.7 294.3 58.3 319.7 29.2 332.3L0 345Z" fill="#286754"></path><path d="M0 487L29.2 485.2C58.3 483.3 116.7 479.7 174.8 465.3C233 451 291 426 349.2 399C407.3 372 465.7 343 523.8 337.5C582 332 640 350 698.2 378.8C756.3 407.7 814.7 447.3 872.8 438.3C931 429.3 989 371.7 1047.2 369.8C1105.3 368 1163.7 422 1221.8 461.7C1280 501.3 1338 526.7 1396.2 508.7C1454.3 490.7 1512.7 429.3 1570.8 420.3C1629 411.3 1687 454.7 1745.2 460.2C1803.3 465.7 1861.7 433.3 1890.8 417.2L1920 401L1920 291L1890.8 316.2C1861.7 341.3 1803.3 391.7 1745.2 388C1687 384.3 1629 326.7 1570.8 326.7C1512.7 326.7 1454.3 384.3 1396.2 398.7C1338 413 1280 384 1221.8 346.2C1163.7 308.3 1105.3 261.7 1047.2 265.3C989 269 931 323 872.8 339.2C814.7 355.3 756.3 333.7 698.2 310.3C640 287 582 262 523.8 263.8C465.7 265.7 407.3 294.3 349.2 314C291 333.7 233 344.3 174.8 360.5C116.7 376.7 58.3 398.3 29.2 409.2L0 420Z" fill="#2b6f5b"></path><path d="M0 617L29.2 613.3C58.3 609.7 116.7 602.3 174.8 595C233 587.7 291 580.3 349.2 557C407.3 533.7 465.7 494.3 523.8 501.7C582 509 640 563 698.2 599C756.3 635 814.7 653 872.8 627.7C931 602.3 989 533.7 1047.2 517.3C1105.3 501 1163.7 537 1221.8 569.5C1280 602 1338 631 1396.2 632.8C1454.3 634.7 1512.7 609.3 1570.8 609.3C1629 609.3 1687 634.7 1745.2 638.3C1803.3 642 1861.7 624 1890.8 615L1920 606L1920 399L1890.8 415.2C1861.7 431.3 1803.3 463.7 1745.2 458.2C1687 452.7 1629 409.3 1570.8 418.3C1512.7 427.3 1454.3 488.7 1396.2 506.7C1338 524.7 1280 499.3 1221.8 459.7C1163.7 420 1105.3 366 1047.2 367.8C989 369.7 931 427.3 872.8 436.3C814.7 445.3 756.3 405.7 698.2 376.8C640 348 582 330 523.8 335.5C465.7 341 407.3 370 349.2 397C291 424 233 449 174.8 463.3C116.7 477.7 58.3 481.3 29.2 483.2L0 485Z" fill="#2f7862"></path><path d="M0 681L29.2 673.8C58.3 666.7 116.7 652.3 174.8 648.8C233 645.3 291 652.7 349.2 632.8C407.3 613 465.7 566 523.8 564.2C582 562.3 640 605.7 698.2 638.2C756.3 670.7 814.7 692.3 872.8 676.2C931 660 989 606 1047.2 589.8C1105.3 573.7 1163.7 595.3 1221.8 618.7C1280 642 1338 667 1396.2 667C1454.3 667 1512.7 642 1570.8 647.5C1629 653 1687 689 1745.2 699.7C1803.3 710.3 1861.7 695.7 1890.8 688.3L1920 681L1920 604L1890.8 613C1861.7 622 1803.3 640 1745.2 636.3C1687 632.7 1629 607.3 1570.8 607.3C1512.7 607.3 1454.3 632.7 1396.2 630.8C1338 629 1280 600 1221.8 567.5C1163.7 535 1105.3 499 1047.2 515.3C989 531.7 931 600.3 872.8 625.7C814.7 651 756.3 633 698.2 597C640 561 582 507 523.8 499.7C465.7 492.3 407.3 531.7 349.2 555C291 578.3 233 585.7 174.8 593C116.7 600.3 58.3 607.7 29.2 611.3L0 615Z" fill="#328169"></path><path d="M0 833L29.2 825.7C58.3 818.3 116.7 803.7 174.8 807.2C233 810.7 291 832.3 349.2 828.8C407.3 825.3 465.7 796.7 523.8 803.8C582 811 640 854 698.2 870.2C756.3 886.3 814.7 875.7 872.8 856C931 836.3 989 807.7 1047.2 795C1105.3 782.3 1163.7 785.7 1221.8 791C1280 796.3 1338 803.7 1396.2 821.7C1454.3 839.7 1512.7 868.3 1570.8 882.7C1629 897 1687 897 1745.2 895.3C1803.3 893.7 1861.7 890.3 1890.8 888.7L1920 887L1920 679L1890.8 686.3C1861.7 693.7 1803.3 708.3 1745.2 697.7C1687 687 1629 651 1570.8 645.5C1512.7 640 1454.3 665 1396.2 665C1338 665 1280 640 1221.8 616.7C1163.7 593.3 1105.3 571.7 1047.2 587.8C989 604 931 658 872.8 674.2C814.7 690.3 756.3 668.7 698.2 636.2C640 603.7 582 560.3 523.8 562.2C465.7 564 407.3 611 349.2 630.8C291 650.7 233 643.3 174.8 646.8C116.7 650.3 58.3 664.7 29.2 671.8L0 679Z" fill="#3e8972"></path><path d="M0 897L29.2 900.7C58.3 904.3 116.7 911.7 174.8 919C233 926.3 291 933.7 349.2 931.8C407.3 930 465.7 919 523.8 920.7C582 922.3 640 936.7 698.2 938.5C756.3 940.3 814.7 929.7 872.8 926.2C931 922.7 989 926.3 1047.2 919.2C1105.3 912 1163.7 894 1221.8 892.2C1280 890.3 1338 904.7 1396.2 924.5C1454.3 944.3 1512.7 969.7 1570.8 982.3C1629 995 1687 995 1745.2 986C1803.3 977 1861.7 959 1890.8 950L1920 941L1920 885L1890.8 886.7C1861.7 888.3 1803.3 891.7 1745.2 893.3C1687 895 1629 895 1570.8 880.7C1512.7 866.3 1454.3 837.7 1396.2 819.7C1338 801.7 1280 794.3 1221.8 789C1163.7 783.7 1105.3 780.3 1047.2 793C989 805.7 931 834.3 872.8 854C814.7 873.7 756.3 884.3 698.2 868.2C640 852 582 809 523.8 801.8C465.7 794.7 407.3 823.3 349.2 826.8C291 830.3 233 808.7 174.8 805.2C116.7 801.7 58.3 816.3 29.2 823.7L0 831Z" fill="#49917a"></path><path d="M0 1038L29.2 1032.5C58.3 1027 116.7 1016 174.8 1007C233 998 291 991 349.2 996.5C407.3 1002 465.7 1020 523.8 1021.8C582 1023.7 640 1009.3 698.2 1007.5C756.3 1005.7 814.7 1016.3 872.8 1016.3C931 1016.3 989 1005.7 1047.2 1002C1105.3 998.3 1163.7 1001.7 1221.8 1008.8C1280 1016 1338 1027 1396.2 1032.5C1454.3 1038 1512.7 1038 1570.8 1039.8C1629 1041.7 1687 1045.3 1745.2 1038.2C1803.3 1031 1861.7 1013 1890.8 1004L1920 995L1920 939L1890.8 948C1861.7 957 1803.3 975 1745.2 984C1687 993 1629 993 1570.8 980.3C1512.7 967.7 1454.3 942.3 1396.2 922.5C1338 902.7 1280 888.3 1221.8 890.2C1163.7 892 1105.3 910 1047.2 917.2C989 924.3 931 920.7 872.8 924.2C814.7 927.7 756.3 938.3 698.2 936.5C640 934.7 582 920.3 523.8 918.7C465.7 917 407.3 928 349.2 929.8C291 931.7 233 924.3 174.8 917C116.7 909.7 58.3 902.3 29.2 898.7L0 895Z" fill="#549983"></path><path d="M0 1081L29.2 1081C58.3 1081 116.7 1081 174.8 1081C233 1081 291 1081 349.2 1081C407.3 1081 465.7 1081 523.8 1081C582 1081 640 1081 698.2 1081C756.3 1081 814.7 1081 872.8 1081C931 1081 989 1081 1047.2 1081C1105.3 1081 1163.7 1081 1221.8 1081C1280 1081 1338 1081 1396.2 1081C1454.3 1081 1512.7 1081 1570.8 1081C1629 1081 1687 1081 1745.2 1081C1803.3 1081 1861.7 1081 1890.8 1081L1920 1081L1920 993L1890.8 1002C1861.7 1011 1803.3 1029 1745.2 1036.2C1687 1043.3 1629 1039.7 1570.8 1037.8C1512.7 1036 1454.3 1036 1396.2 1030.5C1338 1025 1280 1014 1221.8 1006.8C1163.7 999.7 1105.3 996.3 1047.2 1000C989 1003.7 931 1014.3 872.8 1014.3C814.7 1014.3 756.3 1003.7 698.2 1005.5C640 1007.3 582 1021.7 523.8 1019.8C465.7 1018 407.3 1000 349.2 994.5C291 989 233 996 174.8 1005C116.7 1014 58.3 1025 29.2 1030.5L0 1036Z" fill="#5fa18c"></path></svg>
