<?xml version="1.0" standalone="no"?>
<!DOCTYPE svg PUBLIC "-//W3C//DTD SVG 20010904//EN"
 "http://www.w3.org/TR/2001/REC-SVG-20010904/DTD/svg10.dtd">
<svg version="1.0" xmlns="http://www.w3.org/2000/svg"
 width="500.000000pt" height="458.000000pt" viewBox="0 0 500.000000 458.000000"
 preserveAspectRatio="xMidYMid meet">

<g transform="translate(0.000000,458.000000) scale(0.100000,-0.100000)"
fill="#000000" stroke="none">
<path d="M3353 4569 c-104 -13 -284 -54 -404 -93 -82 -26 -350 -155 -384 -185
-11 -10 -63 -47 -115 -83 -97 -67 -293 -242 -373 -333 -39 -44 -91 -128 -152
-249 -29 -57 -88 -113 -132 -126 -25 -8 -220 -14 -573 -18 -845 -10 -802 -11
-893 21 -138 50 -232 49 -292 -5 -53 -46 -48 -72 27 -145 35 -33 83 -72 108
-88 25 -15 117 -78 204 -139 87 -61 190 -132 229 -158 38 -26 119 -90 181
-141 96 -81 183 -147 325 -248 60 -42 182 -161 198 -193 65 -125 53 -331 -33
-573 -26 -75 -55 -181 -68 -258 -13 -71 -35 -159 -49 -195 -14 -36 -31 -90
-37 -120 -13 -65 -56 -207 -115 -380 -24 -69 -59 -176 -79 -237 -20 -62 -56
-167 -81 -233 -24 -66 -54 -159 -66 -207 -12 -49 -25 -97 -29 -108 -4 -11 -10
-32 -14 -48 l-6 -27 1889 0 1890 0 11 40 c5 22 14 57 19 78 19 74 103 488 107
527 2 21 31 120 65 220 66 192 106 352 168 665 76 386 110 722 118 1170 8 450
-8 652 -69 853 -69 230 -273 515 -508 708 -36 29 -74 62 -85 72 -35 31 -171
107 -258 142 -220 90 -489 125 -724 94z m403 -304 c120 -19 211 -48 314 -100
345 -175 602 -512 680 -894 18 -88 20 -138 20 -428 0 -715 -43 -1065 -210
-1733 -21 -85 -59 -256 -84 -380 -24 -124 -58 -272 -74 -330 -46 -165 -91
-332 -97 -362 l-5 -28 -1679 0 -1678 0 28 83 c15 45 44 136 64 202 21 66 50
145 65 175 31 61 65 166 135 410 27 93 61 189 79 220 17 30 35 64 39 75 26 62
83 268 107 387 20 100 38 157 65 210 65 127 96 276 97 462 1 205 -27 264 -184
389 -51 41 -124 102 -163 136 -38 34 -95 76 -126 92 -31 17 -130 94 -219 172
l-163 142 414 12 c511 14 587 23 674 83 50 35 83 75 179 225 65 100 104 146
234 275 219 218 339 295 604 391 129 46 267 82 403 103 55 8 111 17 125 19 63
10 274 5 356 -8z"/>
<path d="M3355 3632 c-56 -30 -92 -83 -147 -211 -27 -66 -32 -88 -32 -168 -1
-78 2 -96 20 -120 27 -36 77 -70 126 -85 35 -10 44 -9 91 14 123 61 194 164
204 293 7 89 -7 153 -49 217 -57 90 -124 109 -213 60z"/>
</g>
</svg>
